<svg width="40" height="40" viewBox="0 0 40 40" fill="none" xmlns="http://www.w3.org/2000/svg">
<path d="M17.6466 20.433C17.7429 19.9099 17.6982 19.3771 17.5873 18.868C17.972 19.3573 18.0421 20.15 17.8882 20.7502C17.8076 21.0647 17.6219 21.428 17.3131 21.5033C17.1239 21.5497 16.9418 21.458 16.8228 21.2871C17.2883 21.4606 17.5613 20.8988 17.647 20.4327L17.6466 20.433Z" fill="#121212"/>
<path d="M10.3441 11.5878C11.6636 9.13607 13.5459 7.72354 15.6434 7.61126C18.1464 7.47743 20.4574 8.75916 22.0312 11.0565C22.4214 11.6256 22.7792 12.237 23.0996 12.8846C24.0153 13.2377 25.0627 13.5676 26.1628 13.774C26.4856 13.6821 26.8168 13.6261 27.1504 13.6083C27.2573 13.6025 27.3685 13.6014 27.4992 13.6049L33.5433 13.4574C36.3288 13.3083 38.7264 15.6376 38.8879 18.6502C39.049 21.6623 36.9136 24.2342 34.1406 24.3824L33.5454 24.4376L32.2757 31.474C32.1997 32.1768 31.5574 32.7566 30.8064 32.797C30.7998 32.7973 30.7933 32.7977 30.7868 32.7974L29.2112 32.7864C29.039 32.7853 28.8746 32.7375 28.7319 32.6521C28.69 32.636 28.6487 32.6173 28.6091 32.5951C27.6856 32.083 27.605 32.0021 27.562 31.9583C27.2849 31.6787 27.2091 31.2658 27.3685 30.9073L27.9878 29.5133C28.2592 28.9025 28.4305 28.2562 28.4966 27.5918L28.7681 24.8782L28.2078 24.9296C28.0401 24.9561 27.8973 24.972 27.7585 24.9795C27.4253 24.9971 27.0898 24.9758 26.7575 24.9172C25.606 25.3166 24.5323 25.8806 23.6086 26.4574C23.4169 26.9281 23.2036 27.3806 22.9705 27.8116C21.539 30.4553 19.767 31.7991 16.9452 31.95C14.8474 32.0626 12.8254 30.8589 11.2518 28.562C9.74194 26.3582 8.81635 23.3851 8.64541 20.1903C8.47447 16.9954 9.07744 13.9405 10.3433 11.5883L10.3441 11.5878ZM22.5232 21.0762L19.1951 20.9022L22.4937 20.3726L20.577 20.2009L22.5223 19.7408C22.521 19.7087 22.5197 19.6767 22.518 19.6448L21.1817 19.522L22.4854 19.0881C22.4825 19.0502 22.48 19.0127 22.4767 18.9751L21.4041 18.8663L22.4267 18.4463C22.4222 18.405 22.4176 18.3637 22.4131 18.3224L21.4519 18.2327L22.348 17.824C22.3416 17.7799 22.3345 17.7364 22.3281 17.6923L21.4183 17.6073L22.2505 17.2277C22.243 17.1861 22.2354 17.1445 22.2275 17.1031L18.102 17.9885C18.5382 18.4216 18.8403 19.1448 18.8861 19.9927C18.9107 20.4485 18.8568 20.8766 18.7421 21.2487L22.5183 21.1618C22.5195 21.1326 22.521 21.1038 22.5222 21.0746L22.5232 21.0762ZM17.3225 21.9539C17.8019 21.928 18.2945 21.1316 18.2358 20.0291C18.1768 18.9269 17.6019 18.1871 17.1223 18.2126C16.643 18.2386 16.15 19.0352 16.209 20.1374C16.268 21.2396 16.8429 21.9794 17.3225 21.9539ZM19.829 13.0243C20.2012 13.1803 20.5761 13.3336 20.9574 13.4665C20.2194 12.978 19.4349 12.556 18.6515 12.1406C17.6223 11.5948 16.5647 11.0911 15.4881 10.6396C15.1159 10.4835 14.7413 10.3307 14.3593 10.1976C15.0971 10.6867 15.8818 11.1081 16.6649 11.5237C17.6936 12.0698 18.7526 12.5721 19.8285 13.0235L19.829 13.0243ZM19.9363 11.8589C19.4304 11.3849 18.84 10.991 18.2528 10.6268C17.6658 10.2631 17.0477 9.91078 16.3978 9.67205C16.9028 10.1467 17.4936 10.5403 18.0812 10.9042C18.6682 11.2679 19.2868 11.6193 19.9363 11.8589ZM21.6709 25.6838L20.0337 26.8978L21.9043 24.5995L17.9292 27.1243L21.9918 23.5489L18.1681 25.2974L21.3082 23.0404L17.2033 22.6102C17.1815 22.6081 17.1606 22.6032 17.14 22.5969C16.3033 22.4859 15.626 21.4762 15.5563 20.1726C15.5401 19.8743 15.5577 19.5883 15.6038 19.3216L11.2052 18.7818L15.927 18.3836C16.0177 18.2233 16.1227 18.0819 16.24 17.9636L10.8306 17.1607C10.8523 16.8027 10.8842 16.4454 10.9266 16.0903L16.3018 17.0702L11.0338 15.3306C11.1886 14.3906 11.4249 13.4623 11.7626 12.5516C11.7686 12.5357 11.7749 12.5203 11.7809 12.5044L17.1425 14.0624L11.9656 12.0593C12.1279 11.6983 12.313 11.3485 12.505 11.0015C10.8611 12.9719 9.87758 16.3471 10.0791 20.1137C10.3915 25.9514 13.4337 30.5514 16.8604 30.3678C18.9361 30.2569 20.6838 28.4156 21.6699 25.684L21.6709 25.6838ZM31.628 31.3962C31.6288 31.3871 31.6299 31.3785 31.6317 31.3699L32.8711 24.4996L32.704 24.5149L32.2523 25.8143L32.1552 24.5656L31.9361 24.5857L31.4951 25.8547L31.4002 24.6353L31.1683 24.6565L30.738 25.8952L30.6457 24.7047L30.4793 24.7202L30.1209 28.3028C30.0541 28.9722 29.8816 29.6234 29.6083 30.2382L28.9495 31.7213C28.9087 31.8136 28.9163 31.9147 28.9711 31.9996C29.026 32.0844 29.1149 32.1331 29.2154 32.1339L30.7804 32.1444C31.1582 32.1196 31.5865 31.8155 31.6272 31.3967L31.628 31.3962ZM29.1543 25.0443C29.0304 25.8133 28.9443 26.5887 28.8584 27.3627C28.7994 27.8924 28.7284 28.4108 28.5796 28.9241C28.4381 29.4122 28.2304 29.8724 28.0333 30.3392C27.8489 30.7761 27.5694 31.2531 27.8119 31.7224C27.7108 31.2728 27.9407 30.911 28.1278 30.5195C28.3451 30.0643 28.5663 29.6066 28.7197 29.1253C29.0303 28.1537 29.0574 27.102 29.1124 26.091C29.1313 25.7423 29.1481 25.3932 29.1547 25.0441L29.1543 25.0443ZM33.9305 17.2185C33.5554 16.2452 32.9857 15.3901 32.1456 14.7554C32.3168 14.8316 32.4854 14.9158 32.6496 15.0165C33.5131 15.5472 34.1353 16.3019 34.5951 17.1954C34.2201 16.2221 33.6504 15.3669 32.8102 14.7322C32.9815 14.8084 33.1501 14.8926 33.3142 14.9934C34.1777 15.524 34.7999 16.2787 35.2598 17.1722C34.8847 16.1989 34.315 15.3438 33.4749 14.709C33.6461 14.7852 33.8147 14.8694 33.9789 14.9702C34.8424 15.5009 35.4645 16.2555 35.9244 17.149C35.5494 16.1757 34.9796 15.3206 34.1395 14.6859C34.3108 14.7621 34.4793 14.8463 34.6435 14.947C35.507 15.4777 36.1292 16.2323 36.589 17.1258C36.214 16.1525 35.6443 15.2974 34.8041 14.6627C34.9754 14.7389 35.144 14.8231 35.3081 14.9239C36.1717 15.4545 36.7938 16.2092 37.2537 17.1027C36.8784 16.129 36.3084 15.2735 35.4676 14.6386C35.2711 14.4905 35.0663 14.3626 34.8562 14.249C34.4451 14.1373 34.0133 14.0881 33.5693 14.1117L28.8037 14.2281C29.1513 14.3408 30.3789 14.9187 30.6564 15.089C31.5204 15.6194 32.1421 16.3743 32.602 17.2678C32.2269 16.2945 31.6572 15.4394 30.8171 14.8046C30.9883 14.8808 31.1569 14.965 31.3211 15.0658C32.1846 15.5965 32.8068 16.3511 33.2666 17.2446C32.8916 16.2713 32.3219 15.4162 31.4817 14.7815C31.653 14.8577 31.8216 14.9419 31.9857 15.0426C32.8492 15.5733 33.4714 16.3279 33.9312 17.2214L33.9305 17.2185ZM25.0036 23.6827C24.9077 23.9317 24.7963 24.171 24.6716 24.4021C24.9828 24.0662 25.2587 23.6991 25.4911 23.2902C25.9222 22.5315 26.1747 21.706 26.3203 20.8494C26.2803 21.7688 26.1119 22.6597 25.7532 23.5109C25.6591 23.7343 25.5511 23.9487 25.4324 24.1553C25.7429 23.8432 26.0198 23.4992 26.2575 23.113C26.7095 22.3791 26.975 21.5673 27.1298 20.7239C27.0784 21.6354 26.892 22.5189 26.5037 23.3493C26.4104 23.5489 26.3065 23.7401 26.1934 23.9243C26.4773 23.6598 26.7345 23.3669 26.9605 23.0378C27.467 22.3004 27.7675 21.4711 27.9383 20.5984C27.8749 21.5167 27.6672 22.4058 27.2381 23.2261C27.151 23.3921 27.0568 23.5514 26.9565 23.705C27.249 23.4536 27.5146 23.1699 27.7468 22.8468C28.2602 22.1328 28.5698 21.3293 28.7474 20.4731C28.6731 21.3946 28.4462 22.289 27.9808 23.0947C27.9024 23.2299 27.8195 23.3601 27.7321 23.4859C28.0218 23.2534 28.2857 22.9878 28.5193 22.6832C29.0517 21.9884 29.3711 21.1973 29.557 20.3476C29.4711 21.2835 29.2206 22.1894 28.7103 22.9873C28.6482 23.0844 28.5835 23.1783 28.5169 23.2694C28.7922 23.0616 29.0459 22.8227 29.2742 22.5471C29.837 21.8675 30.1711 21.0745 30.366 20.2212C30.2722 21.1374 30.0153 22.0146 29.5017 22.7879C29.4383 22.8837 29.3717 22.9765 29.303 23.0661C29.5776 22.8719 29.8314 22.6443 30.0593 22.3792C30.6317 21.7142 30.9735 20.9424 31.1746 20.0951C31.0715 21.01 30.7965 21.8487 30.2807 22.616C30.2009 22.7351 30.1151 22.8479 30.0254 22.9565C31.1017 22.0591 31.7343 20.6155 31.6506 19.0496C31.5429 17.0331 30.2324 15.3124 28.4768 14.8089C26.7529 14.8236 25.0358 14.4249 23.5664 13.9229C24.222 15.5353 24.6468 17.3409 24.7504 19.2823C24.8405 20.9672 24.6943 22.5945 24.3498 24.1003C24.4934 23.8926 24.6256 23.6753 24.7441 23.446C25.1464 22.6694 25.3779 21.8363 25.5114 20.9751C25.4836 21.9035 25.3388 22.8129 25.0039 23.6831L25.0036 23.6827ZM23.5363 22.3779C23.7446 20.6579 23.6838 18.9174 23.3807 17.2127C23.0188 15.1759 22.2506 13.1424 21.0028 11.4798C19.8438 9.93528 18.1577 8.6407 16.1548 8.60707C16.002 8.60448 15.8499 8.61675 15.6976 8.62521C16.5234 8.64741 17.309 8.81881 18.0453 9.20393C18.9071 9.65451 19.6451 10.3213 20.2569 11.0715C21.5393 12.6436 22.3228 14.5824 22.7624 16.5492C23.1255 18.1734 23.2477 19.8571 23.1402 21.5173C23.0093 23.5406 22.5335 25.5983 21.5454 27.3821C20.6311 29.0332 19.2307 30.4874 17.3206 30.8726C17.1788 30.9013 17.0347 30.9163 16.8914 30.9358C17.7686 30.8895 18.579 30.6628 19.3343 30.2044C20.1814 29.6905 20.8805 28.9721 21.4494 28.1657C22.6398 26.4785 23.29 24.4148 23.5366 22.3783L23.5363 22.3779ZM10.3237 26.1319C10.6365 26.8429 10.9942 27.5368 11.442 28.1735C11.83 28.7248 12.2645 29.2147 12.7537 29.6764C11.8527 28.7592 11.1603 27.7163 10.6233 26.5483C10.035 25.2697 9.64343 23.8932 9.40206 22.5086C8.90731 19.6676 9.00778 16.6664 9.85604 13.9024C10.2761 12.5335 10.9251 11.2801 11.8425 10.1814C10.9924 11.1256 10.3605 12.199 9.92101 13.392C9.42426 14.7393 9.15084 16.1358 9.02021 17.5636C8.88625 19.0294 8.94388 20.5239 9.16558 21.9778C9.38229 23.4026 9.74309 24.8108 10.3239 26.1323L10.3237 26.1319Z" fill="#121212"/>
<path d="M8.73629 12.2615C8.38945 12.1637 8.04851 12.0421 7.71141 11.9151C6.79975 11.5724 5.9196 11.1595 5.04305 10.7373C5.33955 10.5599 5.63567 10.3828 5.93399 10.2099C5.09049 9.75178 4.25239 9.26568 3.47609 8.70019C3.92388 8.83652 4.3635 9.00097 4.79822 9.17432C5.56264 9.47897 6.30833 9.82324 7.0552 10.1684C6.76947 10.3467 6.48388 10.5243 6.19567 10.6979C6.27555 10.7406 6.3561 10.7818 6.43519 10.8251C7.22622 11.2553 8.01829 11.7155 8.73589 12.2618L8.73629 12.2615Z" fill="#121212"/>
<path d="M7.42827 16.1552C7.05892 16.1688 6.68825 16.1571 6.31893 16.1389C5.35558 16.0915 4.39996 15.9698 3.44531 15.8383C3.67278 15.5787 3.90026 15.319 4.13179 15.0629C3.18828 14.8855 2.24162 14.68 1.32935 14.3803C1.79743 14.3726 2.26629 14.3945 2.73287 14.4258C3.55389 14.4813 4.36943 14.5801 5.18589 14.6794C4.96881 14.9368 4.75122 15.1934 4.53049 15.4469C4.61957 15.4631 4.70866 15.4776 4.79761 15.4945C5.68239 15.6612 6.57742 15.8565 7.42814 16.1559L7.42827 16.1552Z" fill="#121212"/>
<path d="M3.70223 20.5352C2.75028 20.6575 1.78609 20.7545 0.825952 20.7499C1.26884 20.5981 1.72171 20.4743 2.17533 20.3603C2.97353 20.1598 3.77941 20.002 4.58687 19.8449C4.46001 20.1563 4.33237 20.4666 4.20053 20.7756C4.60848 20.7207 5.01772 20.6729 5.42782 20.6358C6.00738 20.5836 6.5928 20.5428 7.17506 20.5575C6.82764 20.6844 6.4718 20.7873 6.11519 20.8839C5.18417 21.1362 4.23773 21.3152 3.28884 21.4844C3.42546 21.167 3.56168 20.85 3.70263 20.5349L3.70223 20.5352Z" fill="#121212"/>
<path d="M4.29129 26.8992C4.34714 26.5585 4.4026 26.218 4.46345 25.878C3.56904 26.2271 2.65738 26.5535 1.72411 26.7817C2.11713 26.5276 2.52633 26.298 2.93918 26.0774C3.66518 25.6899 4.40939 25.3422 5.15466 24.9943C5.10661 25.3271 5.05803 25.659 5.00472 25.9907C5.38737 25.8388 5.77275 25.6937 6.1619 25.5586C6.71137 25.3677 7.26973 25.1868 7.83821 25.0601C7.53223 25.267 7.21135 25.4531 6.88866 25.633C6.04613 26.103 5.17106 26.5047 4.29142 26.8986L4.29129 26.8992Z" fill="#121212"/>
<path d="M4.16767 32.064C4.48524 31.7205 4.82521 31.3962 5.17001 31.0802C5.77716 30.5246 6.41189 30.0032 7.04767 29.4816C7.08391 29.8155 7.11909 30.1496 7.14981 30.4838C7.48293 30.2413 7.82023 30.0052 8.16353 29.7782C8.64867 29.4571 9.1443 29.1432 9.66388 28.8794C9.41857 29.156 9.15374 29.4159 8.88592 29.6703C8.18631 30.3346 7.43833 30.941 6.6838 31.5409C6.6534 31.1969 6.62261 30.8531 6.59733 30.5091C5.81749 31.0689 5.01511 31.6118 4.16833 32.0641L4.16767 32.064Z" fill="#121212"/>
</svg>
